# Blender 4.5.4 LTS
# www.blender.org
o bolt
v 0.006208 0.006208 -0.068287
v 0.006208 -0.006208 -0.068287
v 0.006208 0.006208 0.068287
v 0.006208 -0.006208 0.068287
v -0.006208 0.006208 -0.068287
v -0.006208 -0.006208 -0.068287
v -0.006208 0.006208 0.068287
v -0.006208 -0.006208 0.068287
v -0.006208 -0.006208 -0.015331
v 0.006208 0.006208 -0.015331
v -0.006208 0.006208 -0.015331
v 0.006208 -0.006208 -0.015331
v -0.006208 -0.001808 -0.019731
v -0.006208 0.001808 -0.019731
v -0.006208 0.001808 -0.063887
v -0.006208 -0.001808 -0.063887
v 0.006208 -0.001808 -0.063887
v 0.006208 0.001808 -0.063887
v 0.006208 0.001808 -0.019731
v 0.006208 -0.001808 -0.019731
v -0.001808 -0.006208 -0.063887
v 0.001808 -0.006208 -0.063887
v 0.001808 -0.006208 -0.019731
v -0.001808 -0.006208 -0.019731
v 0.001808 0.006208 -0.063887
v -0.001808 0.006208 -0.063887
v -0.001808 0.006208 -0.019731
v 0.001808 0.006208 -0.019731
v 0.001808 -0.018624 -0.072444
v -0.001808 -0.018624 -0.072444
v -0.001808 -0.018624 -0.039846
v 0.001808 -0.018624 -0.039846
v -0.001808 0.018624 -0.072444
v 0.001808 0.018624 -0.072444
v 0.001808 0.018624 -0.039846
v -0.001808 0.018624 -0.039846
v -0.018624 0.001808 -0.039846
v -0.018624 -0.001808 -0.039846
v -0.018624 -0.001808 -0.072444
v -0.018624 0.001808 -0.072444
v 0.018624 0.001808 -0.072444
v 0.018624 -0.001808 -0.072444
v 0.018624 -0.001808 -0.039846
v 0.018624 0.001808 -0.039846
v -0.008611 -0.008991 0.072798
v -0.008611 0.008991 0.072798
v 0.008611 0.008991 0.072798
v 0.008611 -0.008991 0.072798
v 0.000000 0.000000 0.108164
v 0.004664 0.004664 -0.081206
v -0.004664 -0.004664 -0.081206
v 0.004664 -0.004664 -0.081206
v -0.004664 0.004664 -0.081206
vn -0.0000 1.0000 -0.0000
vn -0.0000 -0.8510 -0.5251
vn -0.5675 -0.0000 -0.8234
vn -0.0000 -1.0000 -0.0000
vn 1.0000 -0.0000 -0.0000
vn 0.9929 -0.0000 -0.1187
vn -0.0000 -0.5675 -0.8234
vn -1.0000 -0.0000 -0.0000
vn -0.0000 0.8509 0.5252
vn -0.0000 0.5675 -0.8234
vn -0.0000 -0.8509 0.5252
vn 0.8509 -0.0000 0.5252
vn -0.8509 -0.0000 0.5252
vn 0.5675 -0.0000 -0.8234
vn 0.9716 -0.0000 0.2366
vn -0.0000 0.8510 -0.5251
vn 0.8826 -0.0000 -0.4702
vn -0.8826 -0.0000 -0.4702
vn -0.9929 -0.0000 -0.1187
vn -0.0000 0.9692 0.2464
vn -0.9716 -0.0000 0.2366
vn -0.0000 -0.9692 0.2464
vn -0.0000 -0.0000 -1.0000
vn -0.0000 -0.9929 -0.1187
vn -0.0000 0.9929 -0.1187
vt 0.625000 0.537500
vt 0.875000 0.537500
vt 0.875000 0.750000
vt 0.625000 0.750000
vt 0.125000 0.750000
vt 0.375000 0.750000
vt 0.463599 0.508054
vt 0.536401 0.508054
vt 0.125000 0.537500
vt 0.375000 0.537500
vt 0.625000 0.500000
vt 0.375000 0.500000
vt 0.536401 0.529446
vt 0.713599 0.508054
vt 0.786401 0.508054
vt 0.375000 0.000000
vt 0.625000 0.000000
vt 0.625000 0.212500
vt 0.375000 0.212500
vt 0.786401 0.529446
vt 0.536401 0.220554
vt 0.463599 0.220554
vt 0.625000 0.250000
vt 0.536401 0.241946
vt 0.375000 0.250000
vt 0.463599 0.241946
vt 0.463599 0.529446
vt 0.125000 0.500000
vt 0.286401 0.508054
vt 0.213599 0.508054
vt 0.286401 0.529446
vt 0.213599 0.529446
vt 0.875000 0.500000
vt 0.713599 0.529446
s 0
f 10/1/1 11/2/1 7/3/1 3/4/1
f 8/5/2 4/6/2 48/6/2 45/5/2
f 17/7/3 18/8/3 41/8/3 42/7/3
f 9/9/4 12/10/4 4/6/4 8/5/4
f 12/10/5 10/1/5 3/4/5 4/6/5
f 1/11/6 2/12/6 52/12/6 50/11/6
f 18/8/1 19/13/1 44/13/1 41/8/1
f 25/14/7 26/15/7 33/15/7 34/14/7
f 8/16/8 7/17/8 11/18/8 9/19/8
f 26/15/8 27/20/8 36/20/8 33/15/8
f 9/19/8 11/18/8 14/21/8 13/22/8
f 11/18/8 5/23/8 15/24/8 14/21/8
f 5/23/8 6/25/8 16/26/8 15/24/8
f 6/25/8 9/19/8 13/22/8 16/26/8
f 2/12/5 1/11/5 18/8/5 17/7/5
f 1/11/5 10/1/5 19/13/5 18/8/5
f 10/1/5 12/10/5 20/27/5 19/13/5
f 12/10/5 2/12/5 17/7/5 20/27/5
f 6/28/4 2/12/4 22/29/4 21/30/4
f 2/12/4 12/10/4 23/31/4 22/29/4
f 12/10/4 9/9/4 24/32/4 23/31/4
f 9/9/4 6/28/4 21/30/4 24/32/4
f 1/11/1 5/33/1 26/15/1 25/14/1
f 5/33/1 11/2/1 27/20/1 26/15/1
f 11/2/1 10/1/1 28/34/1 27/20/1
f 10/1/1 1/11/1 25/14/1 28/34/1
f 30/30/4 29/29/4 32/31/4 31/32/4
f 34/14/1 33/15/1 36/20/1 35/34/1
f 22/29/5 23/31/5 32/31/5 29/29/5
f 27/20/9 28/34/9 35/34/9 36/20/9
f 21/30/10 22/29/10 29/29/10 30/30/10
f 28/34/5 25/14/5 34/14/5 35/34/5
f 23/31/11 24/32/11 31/32/11 32/31/11
f 24/32/8 21/30/8 30/30/8 31/32/8
f 38/22/8 37/21/8 40/24/8 39/26/8
f 42/7/5 41/8/5 44/13/5 43/27/5
f 14/21/1 15/24/1 40/24/1 37/21/1
f 19/13/12 20/27/12 43/27/12 44/13/12
f 13/22/13 14/21/13 37/21/13 38/22/13
f 20/27/4 17/7/4 42/7/4 43/27/4
f 15/24/14 16/26/14 39/26/14 40/24/14
f 16/26/4 13/22/4 38/22/4 39/26/4
f 48/6/15 47/4/15 49/6/15
f 3/4/16 7/3/16 46/3/16 47/4/16
f 4/6/17 3/4/17 47/4/17 48/6/17
f 7/17/18 8/16/18 45/16/18 46/17/18
f 6/25/19 5/23/19 53/23/19 51/25/19
f 47/4/20 46/3/20 49/4/20
f 46/17/21 45/16/21 49/17/21
f 45/5/22 48/6/22 49/5/22
f 51/25/23 53/23/23 50/11/23 52/12/23
f 2/12/24 6/28/24 51/28/24 52/12/24
f 5/33/25 1/11/25 50/11/25 53/33/25
