# Blender 4.4.0
# www.blender.org
o wall_corner_2x2
v 0.513721 0.413329 -0.675516
v 0.513721 -0.000000 -0.675516
v 0.513721 0.413329 -0.470239
v 0.513721 -0.000000 -0.470239
v -0.066105 -0.000000 -0.675516
v -0.066105 -0.000000 -0.470239
v -0.290667 -0.000000 -0.470239
v -0.290667 0.576025 -0.675516
v -0.290667 -0.000000 -0.675516
v -0.290667 0.576025 -0.470239
v -0.553933 0.000000 -0.438536
v -0.348657 0.707070 -0.438536
v -0.349701 0.000000 -0.439480
v -0.553933 0.707070 -0.438536
v 0.353288 -0.000000 -0.470239
v 0.353288 -0.000000 -0.675516
v -0.186707 -0.000000 -0.470239
v -0.186778 0.773535 -0.675498
v -0.186707 -0.000000 -0.675516
v -0.195299 0.712636 -0.468166
v -0.553933 0.000000 0.772221
v -0.348657 0.000000 0.772221
v -0.553933 0.000000 0.545074
v -0.348657 0.209298 0.772221
v -0.553933 0.209298 0.772221
v -0.347003 0.695412 0.565138
v -0.553933 0.000000 -0.438536
v -0.553933 0.000000 0.072911
v -0.348657 0.707070 -0.438536
v -0.348522 0.985263 0.077502
v -0.348657 0.000000 0.545074
v -0.348657 0.000000 0.072911
v -0.553728 0.748548 0.547570
v -0.552851 0.881513 0.109825
v -0.349701 0.000000 -0.439480
v -0.553933 0.707070 -0.438536
v -0.319819 0.000000 -0.454529
v -0.518463 0.641547 -0.643905
v -0.518463 -0.000000 -0.643905
v -0.319818 0.641547 -0.454529
v 0.353288 0.574628 -0.470239
v -0.087938 0.735458 -0.464970
v -0.068821 0.852156 -0.674860
v 0.353288 0.641315 -0.675516
vn -0.0000 -1.0000 -0.0000
vn 1.0000 -0.0000 -0.0000
vn -0.0000 -0.0000 -1.0000
vn 0.0025 0.0004 -1.0000
vn 0.0054 -0.0039 1.0000
vn -0.8576 0.5111 0.0577
vn -0.0093 -0.0017 1.0000
vn -0.1375 -0.0000 -0.9905
vn 0.2117 0.8667 -0.4516
vn 0.4665 -0.0010 0.8845
vn -0.0000 1.0000 -0.0000
vn -0.0000 -0.0000 1.0000
vn -0.0007 0.0004 -1.0000
vn -0.0135 -0.0054 0.9999
vn 0.0001 -0.0000 -1.0000
vn 0.7676 0.6327 0.1028
vn -0.3911 0.8559 0.3384
vn 0.3664 0.8448 0.3900
vn 0.0107 0.3880 0.9216
vn 1.0000 -0.0019 0.0017
vn -1.0000 0.0008 -0.0008
vn 1.0000 -0.0007 -0.0010
vn -0.2552 0.8899 -0.3781
vn -1.0000 0.0007 0.0009
vn -1.0000 0.0002 -0.0002
vn 1.0000 -0.0010 -0.0019
vn -0.0966 0.9053 0.4137
vn 0.4744 -0.0000 0.8803
vn 0.4137 0.8863 -0.2082
vn -0.9854 -0.0000 -0.1702
vt 0.218539 1.724998
vt 0.073714 1.719657
vt 0.075364 1.527829
vt 0.220189 1.533170
vt -0.027240 0.840604
vt 0.159348 0.840604
vt 0.159348 1.224322
vt -0.027240 1.224322
vt 0.894609 0.840519
vt 0.894610 0.241123
vt 1.039404 0.454207
vt 1.039403 0.840519
vt 0.407252 0.840519
vt 0.407187 0.117546
vt 0.513631 0.044064
vt 0.516097 0.840519
vt 0.705999 1.742975
vt 0.597130 1.738961
vt 0.598781 1.547132
vt 0.707649 1.551147
vt 0.405992 1.527569
vt 0.406530 0.991135
vt 0.802708 0.840519
vt 0.781878 1.526889
vt 0.508783 2.323951
vt 0.510833 2.130154
vt 0.696119 2.130154
vt 0.696069 2.266510
vt 0.889969 1.526694
vt 0.898562 0.861505
vt 0.983683 0.988787
vt 0.983144 1.526525
vt 1.005733 1.724480
vt 0.799845 1.746436
vt 0.801495 1.554608
vt 0.827937 1.540897
vt 0.107059 0.840514
vt 0.107060 0.240901
vt 0.313426 0.302146
vt 0.313425 0.840519
vt 0.211219 1.224322
vt 0.262202 1.412655
vt 0.078473 1.459773
vt 0.050005 1.427066
vt 1.010982 1.527192
vt 1.011583 0.928287
vt 1.039232 0.867801
vt 1.039404 1.527829
vt 0.262202 1.459773
vt 0.262202 1.527829
vt 0.262589 1.141972
vt 0.262202 0.840519
vt 0.232098 1.224236
vt 1.019843 2.524796
vt 1.039404 2.673913
vt 0.943027 2.696219
vt 0.914080 2.568277
vt 0.532709 2.524796
vt 0.544443 2.670707
vt 1.039404 2.512595
vt 0.790222 2.524796
vt 0.803549 2.144882
vt 1.028409 2.130154
vt 0.834323 -0.775358
vt 0.852438 -1.425316
vt 1.039404 -0.970975
vt 1.039404 -0.775358
vt 0.709446 2.130154
vt 0.696119 2.510069
vt 0.936864 2.130154
vt 0.723716 2.130154
vt 0.723716 1.746436
vt 0.936864 1.746436
vt 0.834264 -0.775358
vt 0.836923 -0.079606
vt 0.441864 0.044064
vt 0.408083 -0.775357
vt -0.054587 -0.775358
vt -0.053735 -1.436210
vt 0.412173 -1.696219
vt 0.408028 -0.775358
vt 0.079916 1.746436
vt 0.338253 1.755046
vt 0.328490 2.139803
vt 0.063439 2.128214
vt -0.053167 -0.118177
vt -0.053555 -0.775357
vt 0.492835 2.130154
vt 0.492409 1.748388
vt 1.039289 -0.775358
vt 1.039404 -0.580827
vt 1.039404 2.130154
vt 1.039404 1.746436
vt 0.492409 1.746436
vt 0.472832 2.128476
vt 0.003311 1.224322
vt 0.021282 1.394666
vt 0.174991 2.139803
vt 0.492409 2.139803
vt 0.464453 2.525130
vt 0.176449 2.525130
vt 1.039404 1.533746
vt 0.855034 1.527829
s 0
f 16/1/1 2/2/1 4/3/1 15/4/1
f 2/5/2 1/6/2 3/7/2 4/8/2
f 16/9/3 44/10/3 1/11/3 2/12/3
f 19/13/4 18/14/4 43/15/4 5/16/4
f 19/17/1 5/18/1 6/19/1 17/20/1
f 15/21/5 41/22/5 42/23/5 6/24/5
f 18/25/6 8/26/6 10/27/6 20/28/6
f 17/29/7 20/30/7 10/31/7 7/32/7
f 39/33/1 9/34/1 7/35/1 37/36/1
f 39/37/8 38/38/8 8/39/8 9/40/8
f 38/41/9 14/42/9 12/43/9 40/44/9
f 37/45/10 40/46/10 12/47/10 13/48/10
f 14/49/11 11/49/11 27/49/11 36/49/11
f 12/49/11 14/49/11 36/49/11 29/49/11
f 11/49/11 13/49/11 35/49/11 27/49/11
f 13/49/11 12/49/11 29/49/11 35/49/11
f 4/50/12 3/51/12 41/22/12 15/21/12
f 5/16/13 43/15/13 44/10/13 16/9/13
f 5/18/1 16/1/1 15/4/1 6/19/1
f 6/24/14 42/23/14 20/30/14 17/29/14
f 9/34/1 19/17/1 17/20/1 7/35/1
f 9/40/15 8/39/15 18/14/15 19/13/15
f 1/6/16 44/52/16 41/53/16 3/7/16
f 18/54/17 20/55/17 42/56/17 43/57/17
f 44/58/18 43/57/18 42/56/18 41/59/18
f 33/60/19 25/61/19 24/62/19 26/63/19
f 31/64/20 26/65/20 24/66/20 22/67/20
f 22/68/12 24/62/12 25/61/12 21/69/12
f 23/70/1 28/71/1 32/72/1 31/73/1
f 23/74/21 33/75/21 34/76/21 28/77/21
f 35/78/22 29/79/22 30/80/22 32/81/22
f 36/82/23 34/83/23 30/84/23 29/85/23
f 28/77/24 34/76/24 36/86/24 27/87/24
f 28/71/1 27/88/1 35/89/1 32/72/1
f 21/90/25 25/91/25 33/75/25 23/74/25
f 21/92/1 23/70/1 31/73/1 22/93/1
f 32/81/26 30/80/26 26/65/26 31/64/26
f 34/83/27 33/94/27 26/95/27 30/84/27
f 7/32/28 10/31/28 40/46/28 37/45/28
f 8/96/29 38/41/29 40/44/29 10/97/29
f 11/98/30 14/99/30 38/100/30 39/101/30
f 11/102/1 39/33/1 37/36/1 13/103/1
