# Blender 4.4.0
# www.blender.org
o wall_1x3
v 1.385936 0.413329 -0.106243
v 1.350518 0.000000 -0.106243
v 1.354923 0.413329 0.099033
v 1.350518 0.000000 0.099033
v -1.450000 0.209298 -0.106243
v -1.450000 0.000000 -0.106243
v -1.450000 0.209298 0.099033
v -1.450000 0.000000 0.099033
v 0.770691 0.000000 -0.106243
v 0.771203 1.177723 0.098391
v 0.770691 0.000000 0.099033
v 0.770691 1.177369 -0.106243
v -0.750689 0.000000 -0.106243
v -0.750689 0.941715 0.099033
v -0.750689 0.000000 0.099033
v -0.750689 0.992750 -0.106243
v 0.546129 0.000000 0.099033
v 0.546129 0.576025 -0.106243
v 0.546129 0.000000 -0.106243
v 0.546129 0.576025 0.099033
v -0.239242 0.000000 -0.106243
v -0.239242 0.641104 0.099033
v -0.239242 0.000000 0.099033
v -0.239242 0.698865 -0.106243
v -1.222853 0.000000 -0.106243
v -1.222853 0.812224 0.099033
v -1.222853 0.000000 0.099033
v -1.222853 0.763077 -0.106243
v 1.190084 0.000000 0.099033
v 1.190084 0.986663 -0.106243
v 1.190084 0.000000 -0.106243
v 1.190084 0.892769 0.099033
v 0.650090 0.000000 0.099033
v 0.650090 0.772303 -0.106243
v 0.650090 0.000000 -0.106243
v 0.650090 0.772303 0.099033
v 0.511349 0.898725 -0.106243
v 0.536170 1.129306 -0.111477
v 0.565494 1.149613 0.056954
v 0.512940 0.899827 0.097034
vn -0.9299 0.3652 -0.0437
vn -0.0000 -0.0000 1.0000
vn -1.0000 -0.0000 -0.0000
vn -0.0000 -1.0000 -0.0000
vn 0.9960 -0.0480 0.0752
vn -0.0000 -0.0000 -1.0000
vn -0.0007 0.0003 1.0000
vn 0.4840 0.8533 0.1941
vn 0.4898 0.8427 0.2233
vn -0.8837 0.4681 -0.0000
vn 0.1176 0.9834 0.1384
vn -0.3555 0.9347 0.0043
vn 0.9361 0.3207 0.1441
vn 0.0021 0.0003 1.0000
vn 0.0117 -0.0109 -0.9999
vn -0.9836 0.1653 0.0723
vn -0.6773 -0.7357 0.0046
vn -0.1661 0.9852 -0.0413
vn -0.1000 0.0881 0.9911
vt 1.779296 -0.734685
vt 1.779296 -0.230497
vt 1.602488 -0.230497
vt 1.602488 -0.734685
vt 0.234788 1.481795
vt 0.886024 1.481795
vt 0.415060 1.677440
vt 0.234788 1.677440
vt 1.602488 -0.055513
vt 1.779296 -0.055513
vt 1.425680 1.539256
vt 1.425680 1.677440
vt 1.248872 1.677440
vt 1.248872 1.539256
vt 1.425680 1.657986
vt 1.425680 1.305146
vt 1.602488 1.305146
vt 1.602488 1.657986
vt -0.779296 1.539257
vt 0.082018 1.539257
vt -0.423290 1.677440
vt -0.779296 1.677440
vt -0.779296 1.074151
vt -0.114100 1.074151
vt 0.234788 1.178027
vt -0.779296 1.178027
vt 1.425680 1.074151
vt 1.425680 1.178027
vt 1.248872 1.178027
vt 1.248872 1.074151
vt 0.234788 -0.596502
vt 1.096102 -0.596502
vt 1.248872 -0.235272
vt 0.234788 -0.235272
vt 1.602488 0.521387
vt 1.602488 0.135470
vt 1.779296 0.135470
vt 1.779296 0.521387
vt 1.425680 -0.539040
vt 1.425680 -0.132359
vt 1.248872 -0.132359
vt 1.248872 -0.539040
vt -0.779296 -0.539040
vt -0.128060 -0.539040
vt 0.082018 -0.132359
vt -0.779296 -0.132359
vt 0.234788 0.634597
vt 0.843797 0.634597
vt 1.096102 1.075114
vt 0.234788 1.075114
vt 1.425680 0.101195
vt 1.425680 -0.383881
vt 1.602488 -0.383881
vt 1.602488 0.101195
vt 1.779296 0.785944
vt 1.779296 0.971571
vt 1.602488 0.971571
vt 1.602488 0.785944
vt 0.234788 -0.131396
vt 0.899984 -0.131396
vt 0.730927 -0.041854
vt 0.234788 -0.041854
vt 1.425680 0.308157
vt 1.425680 0.984609
vt 1.248872 0.984609
vt 1.248872 0.308157
vt -0.779296 0.308157
vt -0.170287 0.308157
vt -0.283157 0.984609
vt -0.779296 0.984609
vt 1.425680 0.785944
vt -0.779296 -0.734685
vt -0.599024 -0.734685
vt 1.425680 -0.734685
vt 1.248872 -0.734685
vt 1.425680 -0.734685
vt 1.602488 -0.734685
vt 1.425680 0.785944
vt 1.602488 0.785944
vt 0.234788 -0.734685
vt 0.590794 -0.734685
vt -0.005211 0.954653
vt 0.190907 0.972444
vt 1.779296 0.521387
vt 1.779296 0.716030
vt 1.602488 0.716030
vt 1.602488 0.521387
vt 1.602488 1.148379
vt 1.721987 0.971571
vt 1.721987 1.148379
vt 1.602488 -0.055513
vt 1.779296 -0.055513
vt 1.204991 -0.029689
vt 1.008873 -0.011898
s 0
f 28/1/1 5/2/1 7/3/1 26/4/1
f 27/5/2 26/6/2 7/7/2 8/8/2
f 8/9/3 7/3/3 5/2/3 6/10/3
f 31/11/4 2/12/4 4/13/4 29/14/4
f 2/15/5 1/16/5 3/17/5 4/18/5
f 31/19/6 30/20/6 1/21/6 2/22/6
f 35/23/6 34/24/6 12/25/6 9/26/6
f 35/27/4 9/28/4 11/29/4 33/30/4
f 29/31/7 32/32/7 10/33/7 11/34/7
f 30/35/8 12/36/8 10/37/8 32/38/8
f 25/39/4 13/40/4 15/41/4 27/42/4
f 25/43/6 28/44/6 16/45/6 13/46/6
f 23/47/2 22/48/2 14/49/2 15/50/2
f 24/51/9 16/52/9 14/53/9 22/54/9
f 34/55/10 18/56/10 20/57/10 36/58/10
f 33/59/2 36/60/2 20/61/2 17/62/2
f 21/63/4 19/64/4 17/65/4 23/66/4
f 21/67/6 24/68/6 18/69/6 19/70/6
f 13/46/6 16/45/6 24/68/6 21/67/6
f 13/40/4 21/63/4 23/66/4 15/41/4
f 18/71/11 24/51/11 22/54/11 20/58/11
f 17/62/2 20/61/2 22/48/2 23/47/2
f 6/72/6 5/73/6 28/44/6 25/43/6
f 6/74/4 25/39/4 27/42/4 8/75/4
f 15/50/2 14/49/2 26/6/2 27/5/2
f 16/52/12 28/76/12 26/77/12 14/53/12
f 1/16/13 30/78/13 32/79/13 3/17/13
f 4/80/2 3/81/2 32/32/2 29/31/2
f 9/26/6 12/25/6 30/20/6 31/19/6
f 9/28/4 31/11/4 29/14/4 11/29/4
f 11/34/14 10/33/14 36/60/14 33/59/14
f 12/25/15 34/24/15 37/82/15 38/83/15
f 19/64/4 35/27/4 33/30/4 17/65/4
f 19/70/6 18/69/6 34/24/6 35/23/6
f 38/84/16 37/85/16 40/86/16 39/87/16
f 34/88/17 36/57/17 40/89/17 37/90/17
f 10/37/18 12/36/18 38/91/18 39/92/18
f 36/60/19 10/33/19 39/93/19 40/94/19
