# Blender 4.4.0
# www.blender.org
o selection_Coursor
v -0.500000 0.000000 0.500000
v 0.500000 0.000000 0.500000
v -0.500000 0.000000 -0.500000
v 0.500000 0.000000 -0.500000
v -0.550000 0.000000 -0.550000
v -0.550000 0.000000 0.550000
v 0.550000 0.000000 0.550000
v 0.550000 0.000000 -0.550000
v -0.166667 0.000000 0.500000
v 0.166667 0.000000 0.500000
v 0.166667 0.000000 -0.500000
v -0.166667 0.000000 -0.500000
v -0.183333 0.000000 0.550000
v 0.183333 0.000000 0.550000
v 0.183333 0.000000 -0.550000
v -0.183333 0.000000 -0.550000
v -0.500000 0.000000 -0.166667
v -0.500000 0.000000 0.166667
v 0.500000 0.000000 0.166667
v 0.500000 0.000000 -0.166667
v -0.550000 0.000000 -0.183333
v -0.550000 0.000000 0.183333
v 0.550000 0.000000 0.183333
v 0.550000 0.000000 -0.183333
v 0.190541 0.027150 0.540000
v 0.183333 0.017150 0.550000
v -0.540000 0.027150 0.190541
v -0.550000 0.017150 0.183333
v 0.540000 0.027150 -0.190541
v 0.550000 0.017150 -0.183333
v 0.166667 0.017150 0.500000
v 0.180541 0.027150 0.510000
v -0.500000 0.017150 0.166667
v -0.510000 0.027150 0.180541
v 0.510000 0.027150 -0.510000
v 0.500000 0.017150 -0.500000
v 0.510000 0.027150 0.510000
v -0.510000 0.027150 0.510000
v 0.500000 0.017150 0.500000
v -0.500000 0.017150 0.500000
v 0.500000 0.017150 -0.166667
v 0.510000 0.027150 -0.180541
v -0.166667 0.017150 -0.500000
v -0.180541 0.027150 -0.510000
v -0.500000 0.017150 -0.500000
v -0.510000 0.027150 -0.510000
v -0.183333 0.017150 -0.550000
v -0.190541 0.027150 -0.540000
v -0.540000 0.027150 -0.540000
v -0.550000 0.017150 -0.550000
v -0.500000 0.017150 -0.166667
v -0.510000 0.027150 -0.180541
v -0.540000 0.027150 -0.190541
v -0.550000 0.017150 -0.183333
v 0.540000 0.027150 -0.540000
v 0.550000 0.017150 -0.550000
v 0.180541 0.027150 -0.510000
v 0.166667 0.017150 -0.500000
v 0.183333 0.017150 -0.550000
v 0.190541 0.027150 -0.540000
v -0.540000 0.027150 0.540000
v -0.550000 0.017150 0.550000
v -0.180541 0.027150 0.510000
v -0.166667 0.017150 0.500000
v -0.183333 0.017150 0.550000
v -0.190541 0.027150 0.540000
v 0.540000 0.027150 0.540000
v 0.550000 0.017150 0.550000
v 0.500000 0.017150 0.166667
v 0.510000 0.027150 0.180541
v 0.540000 0.027150 0.190541
v 0.550000 0.017150 0.183333
vn -1.0000 -0.0000 -0.0000
vn -0.0000 1.0000 -0.0000
vn -0.0000 -0.0000 1.0000
vn -0.3162 -0.0000 -0.9487
vn -0.7071 -0.7071 -0.0000
vn 0.3162 -0.0000 0.9487
vn -0.0000 -0.0000 -1.0000
vn 1.0000 -0.0000 -0.0000
vn -0.0000 -1.0000 -0.0000
vn -0.0000 -0.7071 -0.7071
vn 0.9487 -0.0000 -0.3162
vn 0.7071 -0.7071 -0.0000
vn 0.3162 -0.0000 -0.9487
vn -0.9487 -0.0000 -0.3162
vn -0.3162 -0.0000 0.9487
vn 0.9487 -0.0000 0.3162
vn -0.0000 -0.7071 0.7071
vn -0.6708 -0.7071 0.2236
vn 0.2236 -0.7071 -0.6708
vn -0.9487 -0.0000 0.3162
vn 0.6708 -0.7071 0.2236
vn -0.2236 -0.7071 -0.6708
vn -0.6708 -0.7071 -0.2236
vn 0.2236 -0.7071 0.6708
vn 0.6708 -0.7071 -0.2236
vn -0.2236 -0.7071 0.6708
vt 1.000000 0.333333
vt 1.000000 0.000000
vt 0.333333 1.000000
vt 0.333333 1.000000
vt 0.000000 1.000000
vt 0.666667 0.000000
vt 1.000000 0.666667
vt 1.000000 1.000000
vt 0.000000 0.333333
vt 0.000000 0.000000
vt 0.333333 0.000000
vt 0.333333 0.000000
vt 0.666667 1.000000
vt 1.000000 0.676691
vt 1.000000 0.333333
vt 0.000000 0.666667
vt 1.000000 0.323005
vt 1.000000 0.323309
vt 0.000000 0.323005
vt 0.000000 0.323309
vt 0.676691 0.000000
vt 0.676995 1.000000
vt 0.676691 1.000000
vt 0.323005 0.000000
vt 0.323309 0.000000
vt 0.323005 1.000000
vt 0.323309 1.000000
vt 0.676995 0.000000
vt 1.000000 0.676995
vt 0.000000 0.676995
vt 0.000000 0.676691
s 0
f 23/1/1 7/2/1 68/2/1 72/1/1
f 12/3/2 16/4/2 5/5/2 3/5/2
f 10/6/2 14/6/2 7/2/2 2/2/2
f 20/7/2 24/7/2 8/8/2 4/8/2
f 18/9/2 22/9/2 6/10/2 1/10/2
f 1/10/2 6/10/2 13/11/2 9/12/2
f 1/10/3 9/12/3 64/12/3 40/10/3
f 4/8/2 8/8/2 15/13/2 11/13/2
f 24/7/4 20/7/4 41/7/4 30/7/4
f 29/14/5 55/8/5 56/8/5 30/7/5
f 22/9/6 18/9/6 33/9/6 28/9/6
f 13/11/7 6/10/7 62/10/7 65/11/7
f 5/5/3 16/4/3 47/4/3 50/5/3
f 2/2/8 19/15/8 69/15/8 39/2/8
f 3/5/1 17/16/1 51/16/1 45/5/1
f 3/5/2 5/5/2 21/16/2 17/16/2
f 37/2/9 70/17/9 71/18/9 67/2/9
f 2/2/2 7/2/2 23/1/2 19/15/2
f 12/3/7 3/5/7 45/5/7 43/3/7
f 8/8/1 24/7/1 30/7/1 56/8/1
f 34/19/9 38/10/9 61/10/9 27/20/9
f 25/21/10 67/2/10 68/2/10 26/6/10
f 14/6/11 10/6/11 31/6/11 26/6/11
f 6/10/8 22/9/8 28/9/8 62/10/8
f 15/13/3 8/8/3 56/8/3 59/13/3
f 7/2/7 14/6/7 26/6/7 68/2/7
f 35/8/9 57/22/9 60/23/9 55/8/9
f 21/16/8 5/5/8 50/5/8 54/16/8
f 27/20/12 61/10/12 62/10/12 28/9/12
f 38/10/9 63/24/9 66/25/9 61/10/9
f 17/16/13 21/16/13 54/16/13 51/16/13
f 4/8/7 11/13/7 58/13/7 36/8/7
f 44/26/9 46/5/9 49/5/9 48/27/9
f 32/28/9 37/2/9 67/2/9 25/21/9
f 9/12/14 13/11/14 65/11/14 64/11/14
f 42/29/9 35/8/9 55/8/9 29/14/9
f 19/15/15 23/1/15 72/1/15 69/1/15
f 46/5/9 52/30/9 53/31/9 49/5/9
f 11/13/16 15/13/16 59/13/16 58/13/16
f 48/27/17 49/5/17 50/5/17 47/4/17
f 44/26/18 48/27/18 47/4/18 43/3/18
f 43/3/10 45/5/10 46/5/10 44/26/10
f 45/5/5 51/16/5 52/30/5 46/5/5
f 49/5/12 53/31/12 54/16/12 50/5/12
f 51/16/19 54/16/19 53/31/19 52/30/19
f 16/4/20 12/3/20 43/3/20 47/4/20
f 58/13/21 59/13/21 60/23/21 57/22/21
f 41/7/12 36/8/12 35/8/12 42/29/12
f 55/8/17 60/23/17 59/13/17 56/8/17
f 36/8/10 58/13/10 57/22/10 35/8/10
f 42/29/22 29/14/22 30/7/22 41/7/22
f 20/7/8 4/8/8 36/8/8 41/7/8
f 33/9/5 40/10/5 38/10/5 34/19/5
f 64/11/23 65/11/23 66/25/23 63/24/23
f 61/10/10 66/25/10 65/11/10 62/10/10
f 40/10/17 64/12/17 63/24/17 38/10/17
f 34/19/24 27/20/24 28/9/24 33/9/24
f 18/9/1 1/10/1 40/10/1 33/9/1
f 31/6/17 39/2/17 37/2/17 32/28/17
f 32/28/25 25/21/25 26/6/25 31/6/25
f 39/2/12 69/15/12 70/17/12 37/2/12
f 67/2/5 71/18/5 72/1/5 68/2/5
f 69/1/26 72/1/26 71/18/26 70/17/26
f 10/6/3 2/2/3 39/2/3 31/6/3
